<svg xmlns="http://www.w3.org/2000/svg" viewBox="0 0 32 32"><defs><style>.a{fill:#555;}</style></defs><path class="a" d="M16,2A14,14,0,1,1,2,16,14,14,0,0,1,16,2m0-2A16,16,0,1,0,32,16,16,16,0,0,0,16,0Z"/><path class="a" d="M13.41,21.57a5.49,5.49,0,0,1,.24-1.45L14.73,16H11l.61-2.92H19.1l-1.74,7.2a2.62,2.62,0,0,0-.09.56A1.12,1.12,0,0,0,18.54,22a4.42,4.42,0,0,0,1.69-.42L21,24.44a8.9,8.9,0,0,1-3.62.66C15,25.1,13.41,23.74,13.41,21.57Zm1.74-12.2A2.57,2.57,0,0,1,17.79,6.9a2.05,2.05,0,0,1,2.33,2,2.53,2.53,0,0,1-2.66,2.47A2.09,2.09,0,0,1,15.15,9.37Z"/></svg>