<svg xmlns="http://www.w3.org/2000/svg" viewBox="0 0 100 50"><defs><style>.a{fill:#333;fill-rule:evenodd;}</style></defs><path class="a" d="M11.88,7.58H17.2V32.79c-5.1.84-10,1.36-13.49-.59C-.8,29.68-1.16,21.68,2.41,18.11c1.8-1.8,5.44-3.08,9.35-2.25V7.93C11.75,7.77,11.74,7.6,11.88,7.58Zm-6.4,17c0,3.31,2.41,5.28,6.28,4.38V20.24C7.84,19.05,5.5,21.46,5.48,24.62Z"/><path class="a" d="M25.84,7.58v5.56H20.52V7.58Z"/><path class="a" d="M90,15.63c4.43-.48,7.78,1.48,9.11,4.5,2.28,5.14-.12,11-3.79,12.78a10.89,10.89,0,0,1-5.68.83c-5.55-.49-9-6.14-7.1-12.43a8.83,8.83,0,0,1,.83-1.9C84.58,17.36,86.61,16,90,15.63Zm-.24,13.61c5.81,2.26,6.45-10.39.59-9.23C86.72,20.73,86.83,28.1,89.76,29.24Z"/><path class="a" d="M42.53,33c-4.4.25-11.08,1.75-13.49-1.19a6,6,0,0,1,0-6.63c1.63-2.08,5.19-2.54,8.4-2.84A3,3,0,0,0,37.21,20c-2.94-.75-5.86.41-7.93,1.3V17.17c3.13-1.44,10.37-3,12.54.35,1.14,1.74.71,4.77.71,7.46Zm-9.35-5.8c-1.47,2.47,2.23,3.07,4.62,2.36V25.93C36,26.18,33.88,26.06,33.18,27.23Z"/><path class="a" d="M61.23,33.26H55.91V26.4c0-2.26.36-5.13-.83-6-.94-.71-3.16-.35-4.5,0v12.9H45.26V16.81c5.44-1.41,15.27-2.93,16,3.91C61.58,24.09,61,29.14,61.23,33.26Z"/><path class="a" d="M82.54,16.34a33.06,33.06,0,0,1-1.78,3.9c-.54.13-1-.21-1.3,0C79.34,26,80.69,33.84,78.4,38c-1.38,2.5-3.93,4.11-7.81,4.38a15.92,15.92,0,0,1-7.11-1.07v-5c2.43,1.42,8.57,2.58,10.3-.35a8.91,8.91,0,0,0,.71-3.08c-1.11.06-2.19.57-3.55.59-5.58.07-9-4.37-7.69-10.53A8.38,8.38,0,0,1,67,17.52C70.92,15.15,76.9,15.33,82.54,16.34ZM69.17,27.58c.89,1.45,3.32,2,5.32,1.07q-.17-4.16-.12-8.52C69.77,18.91,67,24.12,69.17,27.58Z"/><path class="a" d="M25.84,16v11.5c-.23,4.69-.18,8.42-1.89,10.66a10.52,10.52,0,0,1-1.66,1.54,5.59,5.59,0,0,1-2,1.18,9.43,9.43,0,0,1-2.6-1.07,19.44,19.44,0,0,0-2.49-1.18c2-1.26,4-2.2,4.73-4.73.69-2.21.6-5.41.6-8.53s0-6.65,0-9.37Z"/></svg>