<svg class="fragments" xmlns="http://www.w3.org/2000/svg" viewBox="0 0 493.2
        146.8"><path
        d="M140.8,60.9c2.1-.5,3.1-1.1,3.1-1.8s-.9-.9-2.7-.9h-8c-2.9,0-6,0-9.3-.2s-6.3-.4-9.1-.7c1.3-3,2.8-6.6,4.5-10.9s3.6-8.5,5.9-12.9a59.8,59.8,0,0,1,7.7-11.4l5.9,2.9c3.1,1.5,6.8,3.2,11.4,4.9a80,80,0,0,0,14.6,3.9l1.9.2h1.6a16.8,16.8,0,0,0,9.5-2.5c2.7-1.7,4.2-3.8,4.5-6.2a2.4,2.4,0,0,0,.2-.8v-.8c0-1-.3-1.5-.7-1.5s-1.3.8-2.1,2.6a6.4,6.4,0,0,1-4,3.5,21.5,21.5,0,0,1-6.4.9,44.5,44.5,0,0,1-9.2-1,88.7,88.7,0,0,1-9.8-2.6l-8.9-3.3c-2.6-1.1-4.8-2-6.4-2.8a15.7,15.7,0,0,1,2.8-2.1,6.9,6.9,0,0,1,3.4-.9,5.2,5.2,0,0,1,2.1.4c.7.8,1.2,1.2,1.6,1.2s.8-.4.8-1.2a3.5,3.5,0,0,0-.6-1.9,3.7,3.7,0,0,0-1.8-1.4,18.1,18.1,0,0,0-2.9-.4,8.6,8.6,0,0,0-5.6,1.8L131.7,18A136.9,136.9,0,0,0,116,9.7,130.1,130.1,0,0,0,95.2,2.3,61.2,61.2,0,0,0,79.8,0,43.9,43.9,0,0,0,63.5,2.9a42,42,0,0,0-12.3,7.6,34.3,34.3,0,0,0-7.8,10.3,25.4,25.4,0,0,0-2.7,10.9,17.6,17.6,0,0,0,2.2,8.7,16.5,16.5,0,0,0,6.6,6.5A23.6,23.6,0,0,0,54.7,49a27.6,27.6,0,0,0,5.7.6,24.4,24.4,0,0,0,12.9-3.7,17.9,17.9,0,0,0,8.2-10.8,5.4,5.4,0,0,0,.4-1.9c0-.6-.1-.9-.5-.9s-.8.3-1.4,1a4.1,4.1,0,0,0-.8,2.4c0,.9-.8,2.2-2.5,4A28.2,28.2,0,0,1,70,44.5a20.7,20.7,0,0,1-9.4,2.2,21.4,21.4,0,0,1-4.8-.7,19.4,19.4,0,0,1-4.9-2.2c-2.7-1.6-4.1-4.3-4.1-8.1a20.5,20.5,0,0,1,2.6-9.3A35.2,35.2,0,0,1,56.8,17a41.6,41.6,0,0,1,12-7.2,42.3,42.3,0,0,1,16-2.9l3.9.2a28.5,28.5,0,0,1,4.1.4,79.5,79.5,0,0,1,19.3,5c6.1,2.4,12.1,5.1,17.9,8a32.6,32.6,0,0,0-3.3,4.5c-1.5,2.3-3.3,5.2-5.2,8.5s-3.8,7-5.8,10.9-3.8,7.7-5.4,11.6l-6-.9-6.1-.3a30.7,30.7,0,0,0-12.7,2.6c-3.8,1.7-6.8,5-9,9.7a1.6,1.6,0,0,0-.1,1.5c.2.5.4.7.8.7a2.5,2.5,0,0,0,1.5-.9,12.9,12.9,0,0,1,6-4.8,27,27,0,0,1,8-2.1,78,78,0,0,1,8-.5h7.6a154.2,154.2,0,0,1-11,20.5A95.9,95.9,0,0,1,83.2,98.9a60.5,60.5,0,0,1-17.1,11.7,48.2,48.2,0,0,1-20.4,4.3,50.2,50.2,0,0,1-14.4-2.3,46.1,46.1,0,0,1-13.9-6.8A35.9,35.9,0,0,1,7,94.6,29.3,29.3,0,0,1,3,79.1c0-1,0-2,.1-3.1s.2-2.2.4-3.3c.8-4.6,2.4-8.1,4.6-10.4a42.1,42.1,0,0,1,6-5.3c1.5-1,2.8-1.9,3.9-2.8s1.2-1.3.6-1.3l-1.9.4a17.4,17.4,0,0,0-4.9,2.5,23.9,23.9,0,0,0-5.4,4.8,21,21,0,0,0-4,7A46.8,46.8,0,0,0,0,82.1a35.6,35.6,0,0,0,5.8,20.1,39.5,39.5,0,0,0,15.9,14A51.5,51.5,0,0,0,45,121.3c8.8,0,16.5-1.2,23.1-3.7a55.2,55.2,0,0,0,17.2-10A69,69,0,0,0,97.7,93.5a101.1,101.1,0,0,0,8.9-16c2.5-5.6,4.6-10.9,6.5-16l4.9.4h6c3.4,0,6.7-.1,10-.3A35.7,35.7,0,0,0,140.8,60.9Z"/><path d="M493,76.7a1.1,1.1,0,0,0-1-.5,1.1,1.1,0,0,0-.9.7c-1.8,3.6-3.5,7.1-5.4,10.3a56.4,56.4,0,0,1-4.9,7.6,24.2,24.2,0,0,1-5,4.6,10.7,10.7,0,0,1-5.9,1.8h-1.4l-.9-.2a21.6,21.6,0,0,0,6.9-7.2,17.2,17.2,0,0,0,2.7-8.6,17.5,17.5,0,0,0-1.7-7.9c-1.1-2.5-2.2-4.9-3.2-7.5a28.3,28.3,0,0,1-1.1-4,22,22,0,0,1-.5-4.4,14.5,14.5,0,0,1,1-5.1,7.4,7.4,0,0,1,3.6-3.8,2.8,2.8,0,0,1,1.5-.4,8.8,8.8,0,0,1,2.9.6,1.9,1.9,0,0,0,1.1.4c.6,0,.9-.2.9-.8a2.1,2.1,0,0,0-1.5-2,6.4,6.4,0,0,0-1.8-.6h-3.3c-2.4.4-4.5,1.8-6.5,4.2a48.1,48.1,0,0,0-4.8,7.6c-1.8,3.9-3.8,7.9-5.9,12.1s-4.1,8-5.9,11.5c-1.5.1-2.7,1-3.7,2.7a10.1,10.1,0,0,0-1.6,5.6,24.9,24.9,0,0,1-5.3,5,9.6,9.6,0,0,1-2.4,1.3l-2.2.3a4.5,4.5,0,0,1-3.1-1.2,5.7,5.7,0,0,1-1.4-4.2,18.7,18.7,0,0,1,.4-3.2q.8-3.3,1.2-5.7c.3-1.6.7-3.1,1.1-4.6s.7-2.8,1-3.6a94.8,94.8,0,0,0,10.3-11.1A91.3,91.3,0,0,0,454,54.8h8a.8.8,0,0,0,.8-.6,2.7,2.7,0,0,0,.3-1.2c0-.9-.3-1.3-.9-1.3h-6.5c1-1.8,2.2-3.9,3.3-6.3l2.6-5.4a31.7,31.7,0,0,0,2.6-7,25.4,25.4,0,0,0,.8-5.2,7.1,7.1,0,0,0-1.3-4.7,4.5,4.5,0,0,0-3.4-1.5c-1.7,0-3.8.9-6.1,2.7a26.8,26.8,0,0,0-6.7,8.1l-5,9.2c-1.7,3.3-3.3,6.6-4.9,10.1h-8.1a1.1,1.1,0,0,0-1,.5,1.9,1.9,0,0,0-.4,1.2c0,1,.3,1.4,1,1.4h7.2c-1.7,3.9-3.3,8.2-5,13s-2.7,8.2-3.8,12.1l-1.8,3.3c-1.4,2.6-2.9,5.2-4.7,8a39.6,39.6,0,0,1-5.5,6.8c-1.9,1.9-3.7,2.8-5.4,2.8a2.6,2.6,0,0,1-1.8-.7,3.7,3.7,0,0,1-.8-2.8,13.5,13.5,0,0,1,.4-3.3,44.1,44.1,0,0,1,2.4-7.4c1.2-2.9,2.6-6,4.1-9.2l4.6-9.1,5.2-9.6h-1.4a18.5,18.5,0,0,0-6.9,2,83.3,83.3,0,0,0-8.9,5.1c-3,2.1-5.6,4-7.8,5.9a57.8,57.8,0,0,0-6.1,6l-5.4,6.2c1.6-3.2,3.5-6.7,5.6-10.4a93.3,93.3,0,0,1,6.1-9.8q3-4.4,4.8-5.4H403a9.9,9.9,0,0,1-2.4-.3l-2.3-.3a6.5,6.5,0,0,0-5,1.9,37.2,37.2,0,0,0-4.5,6.9c-1.8,3.2-8,15.4-9.3,18a54.8,54.8,0,0,1-4.8,7.8,30.8,30.8,0,0,1-6.5,6.5,14.2,14.2,0,0,1-8.2,2.5c-2.4,0-4.1-.9-5-2.7a13.4,13.4,0,0,1-1.4-6.1,25.1,25.1,0,0,1,.7-5.5,32.4,32.4,0,0,1,1.2-4.4,19.5,19.5,0,0,0,5.2-.9,45.7,45.7,0,0,0,6.2-2.2,27.5,27.5,0,0,0,5.2-2.9,26.1,26.1,0,0,0,7.3-7.6,14.4,14.4,0,0,0,2.6-7.4,5.9,5.9,0,0,0-2.3-5,8.5,8.5,0,0,0-5.2-1.7,17.8,17.8,0,0,0-9.2,3,37,37,0,0,0-8.8,7.6,44.8,44.8,0,0,0-7.6,12.3c-.5,1.2-5.2,10.6-7,13.3a38.8,38.8,0,0,1-5.5,6.8c-1.9,1.9-3.7,2.9-5.5,2.9a2.4,2.4,0,0,1-1.8-.7,3.7,3.7,0,0,1-.8-2.8,13.5,13.5,0,0,1,.4-3.3,31,31,0,0,1,2.4-7.4c1.2-2.9,2.6-6,4.1-9.2s3.1-6.2,4.5-9.1l5.3-9.6h-1.4a17.2,17.2,0,0,0-7.2,2.2,76.5,76.5,0,0,0-9.1,5.1,68.1,68.1,0,0,0-7.6,5.7,61.4,61.4,0,0,0-6.1,6.3c-2.1,2.3-3.8,4.3-5.1,5.9,1.6-3.2,3.3-6.5,5.2-9.7a53.4,53.4,0,0,0,4.5-9.4,6.4,6.4,0,0,0,.7-2.4c0-1.7-.8-2.8-2.6-3.6h-1.2a10.6,10.6,0,0,0-5.7,2.2,67.6,67.6,0,0,0-6.6,5.2l-6.3,5.6a57.8,57.8,0,0,0-6.1,6L285,83.8c1.6-3.2,3.5-6.7,5.6-10.4a93.3,93.3,0,0,1,6.1-9.8c2-2.9,3.6-4.7,4.9-5.4h-1.3a9.9,9.9,0,0,1-2.4-.3l-2.3-.3a6.6,6.6,0,0,0-5,1.9,37.2,37.2,0,0,0-4.5,6.9c-1.7,3.2-11.3,22.3-13.6,25.3a25.9,25.9,0,0,1-4.5,4.9l-5.1,4.1a85.2,85.2,0,0,0,2.7-21c0-2.1-.1-4.2-.2-6.2a57.9,57.9,0,0,0-.7-6,5.1,5.1,0,0,1-2.8.8,7.7,7.7,0,0,0-3.2.7c-1.1.5-2,1.8-2.6,3.9a39.6,39.6,0,0,1-3.3,7.4,65.8,65.8,0,0,1-5.6,8.9,43,43,0,0,1-6.6,7.3q-3.4,3-6.6,3a3.8,3.8,0,0,1-3.4-1.7,6.9,6.9,0,0,1-1.1-3.9,21.7,21.7,0,0,1,2-8,66.2,66.2,0,0,1,5-9.4,70.7,70.7,0,0,1,6.3-8.4A42,42,0,0,1,251,61c2.9-2,5.4-2.9,7.7-2.9s4.8,1.6,6.1,5c.4,1.2,1,1.7,1.9,1.7s1.6-.6,1.6-2a4.6,4.6,0,0,0-2-3.5,18.7,18.7,0,0,0-11.7-4.2,22.2,22.2,0,0,0-10.7,2.8,32,32,0,0,0-9.2,7.6,62.2,62.2,0,0,0-8.4,12.9l-2.6,5.2c-1.4,2.6-2.9,5.2-4.5,7.7a44.5,44.5,0,0,1-4.9,6.4c-1.7,1.7-3.3,2.5-4.7,2.5s-2.2-1.2-2.2-3.7c0-.5.1-1.2.2-2.2s.3-1.8.4-2.3a38.9,38.9,0,0,1,2.3-6.8,76.7,76.7,0,0,1,3.6-7.7c1.4-2.6,2.7-4.8,3.9-6.8a23.6,23.6,0,0,1,2.9-4.1,8,8,0,0,1-3.1-.1,10.3,10.3,0,0,0-3-.4,5.8,5.8,0,0,0-5,2.4,50.7,50.7,0,0,0-3.8,6.1c-2,3.6-3.9,7-5.8,10.2a82.6,82.6,0,0,1-6.4,9.1c-3.5,4-6.5,5.9-9.2,5.9s-3.4-1.4-3.4-4.4V94.3a5.4,5.4,0,0,1,.1-1.1,31.1,31.1,0,0,1,1.5-5.6c.7-1.9,1.5-3.6,2.2-5.1s1.4-2.6,1.7-3.1a84.8,84.8,0,0,1,8.6-11.6,37,37,0,0,1,9.6-8,12.3,12.3,0,0,1,5.3-1.5,6.2,6.2,0,0,1,6.4,4.8,1.7,1.7,0,0,0,1.7-.3,1.6,1.6,0,0,0,.7-1.3,2.9,2.9,0,0,0-.9-2.2,11.8,11.8,0,0,0-5.1-3.3,16.7,16.7,0,0,0-5.9-1.1,23.8,23.8,0,0,0-11.1,3,30.7,30.7,0,0,0-9.5,7.6,54.8,54.8,0,0,0-8.9,14.4,117.2,117.2,0,0,1-5.3,10.9,40.6,40.6,0,0,1-4.8,6.5q-2.6,2.7-4.5,2.7c-1.8,0-2.7-1.2-2.7-3.5a19.7,19.7,0,0,1,1.3-6.6,71.5,71.5,0,0,1,3.1-7.9l3.6-7.2a46.3,46.3,0,0,0,2.1-4.4,27.8,27.8,0,0,0,2.1-4.9,13.2,13.2,0,0,0,1.1-4.5,4.9,4.9,0,0,0-.3-1.2,88.8,88.8,0,0,1-12.6.8h-3.3l-2.8-.2a39.7,39.7,0,0,0,4.2-3.8,9.1,9.1,0,0,0,3.2-5.3,6.8,6.8,0,0,0,.2-1.4,4.9,4.9,0,0,0,.1-1.2,6.9,6.9,0,0,0-1.5-4.8,4.5,4.5,0,0,0-3.2-1.7,3,3,0,0,0-2.3,1,4.8,4.8,0,0,0-1.5,3.2,126.4,126.4,0,0,1-4.3,16.5,140.7,140.7,0,0,1-7.1,17.6,96.2,96.2,0,0,1-9.5,15.7c-.6.6-.8,1.2-.6,1.6s.3.7.7.7a.9.9,0,0,0,.7-.3,43.7,43.7,0,0,0,6.6-8.7c2.1-3.6,4-7.3,5.8-11.2A108.4,108.4,0,0,0,150,68.1l1.7-4.5a27.4,27.4,0,0,1,7.9,1.2c2,.8,3,1.9,3,3.6a5.4,5.4,0,0,1-.4,1.9,52,52,0,0,1-4,7,46.8,46.8,0,0,0-4.4,9,25.6,25.6,0,0,0-1.7,8.4c0,3.2.8,5.4,2.5,6.8a8.5,8.5,0,0,0,5.2,2.1h1.5a12.7,12.7,0,0,0,6.3-3.6,32.9,32.9,0,0,0,5.4-6.6l1.8-2.8c0,.6-.1,1.2-.1,1.7,0,3.5.7,6.3,2.2,8.4a6.6,6.6,0,0,0,5.7,3.2,10.1,10.1,0,0,0,4.2-1.1,19.6,19.6,0,0,0,4.9-3.5,40.1,40.1,0,0,0,5.5-6.6q2.7-3.7,4.2-6.3a32.3,32.3,0,0,0-1.2,7.8,11.2,11.2,0,0,0,1.4,6.1,7.4,7.4,0,0,0,3.4,3,6.3,6.3,0,0,0,3.4.7,10.2,10.2,0,0,0,5.9-2.9,38.9,38.9,0,0,0,5.6-6.7c1-1.5,2-3,2.9-4.6,0,.6-.1,1.3-.1,1.9a14,14,0,0,0,1.7,6.8,12.1,12.1,0,0,0,5.5,4.6,10.9,10.9,0,0,0,2.6.4,12.8,12.8,0,0,0,7.4-2.6,34.1,34.1,0,0,0,6.7-6.5,59.8,59.8,0,0,0,5.6-7.9q2.4-4.1,3.9-6.9a11.9,11.9,0,0,1,.4,4.1,62.8,62.8,0,0,1-.4,7,67.5,67.5,0,0,1-3.2,15.1c-3.5,1.4-7.1,2.8-11,4s-7.9,2.6-12.1,4.3a76.5,76.5,0,0,0-13.2,6.5,37,37,0,0,0-8.4,6.7,13.6,13.6,0,0,0-3.5,9c0,7.1,4.3,10.6,12.9,10.6a29,29,0,0,0,14.4-4,56.3,56.3,0,0,0,12.7-10.4,87.8,87.8,0,0,0,10.2-13.6,64.8,64.8,0,0,0,6.5-13.7,29.3,29.3,0,0,0,8.4-5.9l.5-.5-2.8,5.5a4.2,4.2,0,0,1,2.1-.6h2.5a13.5,13.5,0,0,0,3.4-.3,3.9,3.9,0,0,0,1.9-1.9c3.8-7.5,7.3-13.3,10.5-17.3a103.1,103.1,0,0,1,8.2-9.4,59.7,59.7,0,0,1,6-4.9,6.8,6.8,0,0,1,3.1-1.5c.6,0,.8.4.8,1.1a13.6,13.6,0,0,1-1.5,5.1c-1,2.2-1.9,4.3-2.9,6.2s-2.4,5.1-3.4,7.6A32,32,0,0,0,296,96a3.8,3.8,0,0,0-.1,1v.8a6.8,6.8,0,0,0,1.2,4,3.9,3.9,0,0,0,3.2,1.7,28.5,28.5,0,0,1,2.9-7.2,84.7,84.7,0,0,1,5.1-8.3c2-2.8,4-5.4,5.9-7.8s3.7-4.2,5.1-5.6a35.9,35.9,0,0,1,5.9-4.7,8.9,8.9,0,0,1,3.8-1.4,1.4,1.4,0,0,1,1.6,1.6,8.2,8.2,0,0,1-1.4,3.7q-2.8,4.7-4.8,8.1a41.4,41.4,0,0,0-2.9,6.3,25,25,0,0,0-1.2,6.9c0,3.4.9,5.8,2.9,7A10.3,10.3,0,0,0,329,104a12.1,12.1,0,0,0,7.4-2.7,33,33,0,0,0,6.3-7,56.9,56.9,0,0,0,3.3-5.2,10.9,10.9,0,0,0-.1,1.8c0,4.4,1.3,7.7,4,9.9a13.8,13.8,0,0,0,9,3.2,19.6,19.6,0,0,0,9.9-2.4,20.1,20.1,0,0,0,4.3-3.4l-3,6.4a3.3,3.3,0,0,1,2-.8l2.6-.2,3.2-.2c.7-.1,1.4-.8,2.1-1.9a117.3,117.3,0,0,1,10.7-17.7c3.2-3.9,5.9-7,8.1-9.2a35.9,35.9,0,0,1,5.9-4.7,8.8,8.8,0,0,1,3.6-1.4c1,0,1.5.5,1.5,1.6a9.3,9.3,0,0,1-.2,1.4,8.9,8.9,0,0,1-1.1,2.3,95.8,95.8,0,0,0-4.9,8.5c-1,2.1-1.9,4.1-2.6,5.9a20.6,20.6,0,0,0-1,3.7c-.1,1.1-.2,2.2-.2,3.2,0,3.4.9,5.8,2.9,7a9.9,9.9,0,0,0,5.6,1.9,11.4,11.4,0,0,0,7.3-2.7,33,33,0,0,0,6.3-7,57.3,57.3,0,0,0,3.8-6.2,36.1,36.1,0,0,0-.3,4.4q0,5.7,3,8.4a10.1,10.1,0,0,0,6.8,2.6,14.6,14.6,0,0,0,4.9-.9,13.6,13.6,0,0,0,4.3-2.9l2.9-3a12.9,12.9,0,0,0,2.2,3.9c1.8,2.3,5,3.4,9.4,3.4l2.7-.3,2.7-.9,2.5.6h2.3a14.2,14.2,0,0,0,8.3-2.5,25.4,25.4,0,0,0,6.6-6.5,72.3,72.3,0,0,0,5.1-8.4l4-8.2A1,1,0,0,0,493,76.7ZM450.8,40.6a45.7,45.7,0,0,1,4.9-8.7,26.2,26.2,0,0,1,3.1-3.9,3.6,3.6,0,0,1,2-1.1c.6,0,1,.6,1,2a22.5,22.5,0,0,1-.7,4.2,47,47,0,0,1-1.6,4.9c-.9,2.2-2,4.5-3.1,6.8l-3.6,6.9h-6.9C447.6,47.9,449.3,44.2,450.8,40.6Zm-10.3,24c1.2-3.2,2.6-6.4,4-9.8h6.4c-2,3.3-4.1,6.4-6.4,9.5a89.3,89.3,0,0,1-7.4,8.7C438.1,70.5,439.2,67.7,440.5,64.6Zm-80.7,10a61.4,61.4,0,0,1,4.8-7,46.7,46.7,0,0,1,7.1-7.4q2.9-2.1,4.5-2.1c1.4,0,2.1,1,2.1,2.9a14.2,14.2,0,0,1-1.9,6.4,22.5,22.5,0,0,1-5.4,6.8,21.6,21.6,0,0,1-8.1,4.5,23.6,23.6,0,0,1-6.4,1.5C357.1,79,358.2,77.1,359.8,74.6ZM248,116.7a80.9,80.9,0,0,1-4.4,6.9,80,80,0,0,1-5.7,7,35.7,35.7,0,0,1-11,9.1,36.9,36.9,0,0,1-6.3,3.1,18.7,18.7,0,0,1-6.3,1.3,6.5,6.5,0,0,1-4.9-1.7,5.1,5.1,0,0,1-1.6-3.9c0-2.1.9-4.5,2.5-7.3a21.7,21.7,0,0,1,6.3-6.8,67.9,67.9,0,0,1,9.7-5.2c3.5-1.6,7-3.1,10.6-4.4l9.9-3.4,2.2-.8,2.6-1A59.3,59.3,0,0,1,248,116.7Zm211.3-15-1.5.2a4.7,4.7,0,0,1-3.8-1.7,5.4,5.4,0,0,1-1.3-3.7,8.1,8.1,0,0,1,2.4-5.6,14.3,14.3,0,0,0,1.8,6.4,15.7,15.7,0,0,0,3.6,4ZM463,100a9.2,9.2,0,0,1-4.3-4,12.8,12.8,0,0,1-1.6-6.3c.1-1.7,0-2.9-.5-3.5a2.6,2.6,0,0,0-2.1-1c.5-.9,1-2,1.5-3.1l2.4-4.5,4.6-9.3,4.1-8.5-.3,1.4v1.7a53.7,53.7,0,0,0,1.1,10.6A66.3,66.3,0,0,1,469,84.8a21.5,21.5,0,0,1-1.9,9.6A16.9,16.9,0,0,1,463,100Z"/></svg>