<svg xmlns="http://www.w3.org/2000/svg" viewBox="0 0 50 50.03"><defs><style>.a{fill:#333;}</style></defs><path class="a" d="M50,25A25,25,0,1,0,16.87,48.65a2.43,2.43,0,0,0,1.28-1.87c0-1.37,0-4.91,0-4.91a16.77,16.77,0,0,1-2.63.19,5.65,5.65,0,0,1-5.72-3.87A6.85,6.85,0,0,0,7,34.86c-.65-.41-.8-.9,0-1,3.45-.65,4.34,3.89,6.64,4.62a6.51,6.51,0,0,0,4.82-.39,5,5,0,0,1,2-3.22C14.49,34.27,11,32.25,9.2,29L9,28.62l-.45-1-.14-.37a17.71,17.71,0,0,1-.81-5.66c0-3.76,1.17-5.18,2.75-7.18a10.06,10.06,0,0,1,.44-7.21s2.54-.52,7.34,2.9C20.74,9,27.68,8.87,31,9.82c2-1.32,5.7-3.2,7.18-2.67.41.64,1.27,2.52.53,6.65.51.9,3.13,2.83,3.14,8.28a21.45,21.45,0,0,1-.64,5.15L41,28s-.12.35-.26.68l-.16.36c-1.74,3.8-5.31,5.22-11.08,5.81,1.87,1.17,2.41,2.64,2.41,6.61s-.06,4.51,0,5.43a2.51,2.51,0,0,0,1.23,1.82A25,25,0,0,0,50,25Z"/></svg>