<svg xmlns="http://www.w3.org/2000/svg" viewBox="0 0 32 32"><defs><style>.a{fill:#555;}</style></defs><path class="a" d="M16,2A14,14,0,1,1,2,16,14,14,0,0,1,16,2m0-2A16,16,0,1,0,32,16,16,16,0,0,0,16,0Z"/><ellipse class="a" cx="16" cy="11" rx="4.56" ry="6"/><path class="a" d="M24.25,20.41a2.36,2.36,0,0,0-1-1.37,17.93,17.93,0,0,0-1.84-.84,16.61,16.61,0,0,1-1.9-.8A5.08,5.08,0,0,1,16,18.91a5.06,5.06,0,0,1-3.53-1.53,6,6,0,0,1-1,.55c-.67.27-1.36.5-2,.75a2.82,2.82,0,0,0-1.69,1.84,15,15,0,0,0-.8,3.3,12,12,0,0,0,18.19,0A14.16,14.16,0,0,0,24.25,20.41Z"/></svg>