<svg xmlns="http://www.w3.org/2000/svg" viewBox="0 0 49.45 50"><defs><style>.a{fill:#333;}.b{fill:#666;}</style></defs><path class="a" d="M24.43,0a33.45,33.45,0,0,0-5.7.49c-5.05.89-6,2.76-6,6.2v4.54H24.7v1.52H8.29A7.44,7.44,0,0,0,.84,18.8a22.28,22.28,0,0,0,0,12.12c.85,3.53,2.87,6,6.34,6h4.1V31.52a7.58,7.58,0,0,1,7.45-7.41H30.65a6,6,0,0,0,6-6.06V6.69c0-3.23-2.73-5.66-6-6.2A37.34,37.34,0,0,0,24.43,0ZM18,3.66a2.27,2.27,0,1,1-2.24,2.28A2.26,2.26,0,0,1,18,3.66Z"/><path class="b" d="M38.1,12.75v5.3a7.65,7.65,0,0,1-7.45,7.56H18.73a6.08,6.08,0,0,0-6,6.06V43c0,3.23,2.81,5.13,6,6.06a20,20,0,0,0,11.92,0c3-.87,6-2.62,6-6.06V38.48H24.7V37H42.58c3.46,0,4.75-2.42,6-6s1.19-7.33,0-12.12c-.86-3.45-2.49-6.05-6-6.05ZM31.4,41.51a2.28,2.28,0,1,1-2.24,2.27A2.26,2.26,0,0,1,31.4,41.51Z"/></svg>